<svg xmlns="http://www.w3.org/2000/svg" width="1920" height="555.75" viewBox="0 0 1920 555.75">
  <defs>
    <style>
      .cls-1 {
        fill-rule: evenodd;
      }
    </style>
  </defs>
  <path id="Color_Fill_6" data-name="Color Fill 6" class="cls-1" d="M2020,648a27.348,27.348,0,0,1,7.33-5.433c3.22-1.578,6.6-10.823,10.29-12.859,12.49-6.888,31.01-14.507,43.72-18,21.8-6,42.6,4.955,56.58,7.716,10.16,2,15.12-3.755,20.58-5.144,13.7-3.487,26.19,3.758,33.43,5.144,2.94,0.561,30.87-5.619,36.01-7.716,7.72-3.153,6.63-14.133,12.86-18,6.29-3.909,14.97-.845,20.57-5.144,4.93-3.784,3.96-12.8,7.72-18,8.56-11.849,38.47-30.1,59.15-30.862,7.74,7.167,19.99,8.719,28.29,15.431,6.97,5.634,9.8,15.861,15.43,23.147,6.17,7.986,20.12,9.36,28.29,15.431,3.88,2.88,6.43,13.445,10.29,15.431h18c6.44-8.442,16.24-12.434,30.87-12.859,35.59,35.486,75.03,6.132,118.3-5.144,31.98-8.334,66.08,19.015,90.02,10.288,1.33-.486,7.92-6.913,10.28-7.716l30.87-5.144c4.5-2.75,7.4-10.5,12.86-12.859q7.71-1.285,15.43-2.572c3.96-2.428,8.49-10.828,12.86-12.859l30.86-2.572q6.42-9,12.86-18c17.43-9.436,41.9,5.53,59.15,0,16.25-5.209,12.49-14.937,41.15-15.431,4.82,4.979,13.71,7.542,18,12.859,14.25,17.635,17.46,40.273,48.87,41.15,18.67-18.406,41.46-8.452,74.58-7.716,10.83,16.8,25.34,34.087,38.58,48.866,19.97-4.462,39.43-10.812,64.3-2.572,8.11,2.69,20.11,13.016,28.29,15.431,20.94,6.186,24.68-13.75,43.72-10.288,4.05,0.737,21.36,2.055,28.29,5.144,8.83,3.939,9.48,16.786,28.29,12.859,18.57-3.876,54.72-5.879,74.58-12.859,16.25-5.708,30.17-21.2,43.73-28.29l41.14-5.144c23.5-11.175,28.16-27.885,64.3-28.29,23.16,21.089,48.17,8.531,69.44,41.149,6.51-3.779,15.89-5.391,23.15-10.287,17.17-11.59,5.44-28.772,38.58-33.434,19.04,15.161,33.44,2.426,59.15,10.287,5.97,1.825,15.66,10.972,20.57,12.859h38.58c8.42,3.372,15.81,16.039,23.15,20.575,8.6,5.318,75.94,10.063,92.59,5.144,18.38-5.433,19.79-21.7,46.29-23.147A18.942,18.942,0,0,1,3904,581c8.97-5.44,9.18-9.652,23.94-10.445A14,14,0,0,1,3940,578v504H2019V649Z" transform="translate(-2020 -524.25)"/>
</svg>
